<svg width="50" height="51" viewBox="0 0 50 51" fill="none" xmlns="http://www.w3.org/2000/svg">
<path d="M47.9173 9.875H8.05435C7.52285 9.86935 6.99838 9.78299 6.51257 9.62115C6.02676 9.4593 5.58968 9.22531 5.22768 8.93329C4.86569 8.64127 4.58628 8.29727 4.40631 7.92203C4.22634 7.5468 4.14953 7.14811 4.18052 6.75C4.17793 5.95774 4.57654 5.19432 5.2957 4.61417C6.01487 4.03402 7.00091 3.68046 8.05435 3.625H47.9173C48.4697 3.625 48.9994 3.46038 49.39 3.16735C49.7806 2.87433 50 2.4769 50 2.0625C50 1.6481 49.7806 1.25067 49.39 0.957646C48.9994 0.66462 48.4697 0.5 47.9173 0.5H8.05435C5.8958 0.556713 3.85099 1.24015 2.35118 2.40616C0.85136 3.57217 0.0137883 5.12961 0.0151116 6.75C-0.0050372 7.00498 -0.0050372 7.26064 0.0151116 7.51562C-0.00495487 7.64017 -0.00495487 7.76608 0.0151116 7.89062V44.25C0.0137883 45.8704 0.85136 47.4278 2.35118 48.5938C3.85099 49.7599 5.8958 50.4433 8.05435 50.5H47.9173C48.4697 50.5 48.9994 50.3354 49.39 50.0424C49.7806 49.7493 50 49.3519 50 48.9375V11.5469C50.0012 11.1218 49.7865 10.7123 49.3997 10.4017C49.0128 10.0912 48.4827 9.90281 47.9173 9.875ZM45.8346 47.375H8.05435C7.00091 47.3195 6.01487 46.966 5.2957 46.3858C4.57654 45.8057 4.17793 45.0423 4.18052 44.25V12.2969C5.36472 12.787 6.70249 13.0298 8.05435 13H45.8346V47.375Z" fill="black"/>
</svg>
